<svg xmlns="http://www.w3.org/2000/svg" width="1200" height="630" viewBox="0 0 1200 630" role="img" aria-labelledby="title desc">
  <title id="title">SiteCrafters — Website Design, Social Media &amp; Video</title>
  <desc id="desc">SiteCrafters helps businesses build a stronger online presence through websites, social media, and video content.</desc>
  <rect width="1200" height="630" fill="#09090b"/>
  <circle cx="1040" cy="90" r="210" fill="#ff3347" opacity="0.12"/>
  <circle cx="1110" cy="540" r="260" fill="#ff3347" opacity="0.07"/>
  <rect x="72" y="72" width="112" height="112" rx="28" fill="#000" stroke="#fff" stroke-opacity="0.16"/>
  <path fill="#fff" d="M102 112c0-20 19-34 42-34h32l-9 15h-22c-13 0-20 4-20 11 0 7 6 10 18 13l20 4c22 4 35 15 35 34 0 21-18 36-42 36H94l10-15h36c13 0 20-5 20-13 0-7-6-10-18-13l-20-4c-20-4-30-16-30-34Z"/>
  <circle cx="168" cy="158" r="16" fill="#ff3347"/>
  <text x="72" y="315" fill="#fff" font-family="Arial, Helvetica, sans-serif" font-size="74" font-weight="700" letter-spacing="-3">sitecrafters<tspan fill="#ff3347">.</tspan></text>
  <text x="76" y="370" fill="#a1a1aa" font-family="Arial, Helvetica, sans-serif" font-size="25" letter-spacing="3">WE BUILD BRANDS ONLINE</text>
  <text x="76" y="490" fill="#fff" font-family="Arial, Helvetica, sans-serif" font-size="36" font-weight="600">Website Design  ·  Social Media  ·  Video</text>
  <text x="76" y="540" fill="#71717a" font-family="Arial, Helvetica, sans-serif" font-size="22">A digital creative agency for businesses and brands.</text>
</svg>
